<svg id="Layer_1" height="512" viewBox="0 0 512 512" width="512" xmlns="http://www.w3.org/2000/svg" data-name="Layer 1"><path d="m376 444h120v33h-120z" fill="#6d6d93"/><path d="m401 262h69v25h-69z" fill="#8f8fb7"/><path d="m436.21 192.13a33.875 33.875 0 1 1 -33.87 33.87 33.88 33.88 0 0 1 33.87-33.87z" fill="#6d6d93"/><path d="m162 424h187v51h-187z" fill="#84a0a3"/><path d="m16 444h120v33h-120z" fill="#6d6d93"/><path d="m42 262h68v25h-68z" fill="#8f8fb7"/><path d="m76.36 192.13a33.875 33.875 0 1 1 -33.87 33.87 33.88 33.88 0 0 1 33.87-33.87z" fill="#6d6d93"/><path d="m464.03 286.6 7.73 129h-70.62l7.74-129z" fill="#6d6d93"/><path d="m104.18 286.6 7.73 129h-70.62l7.74-129z" fill="#6d6d93"/><path d="m476.05 415h-80.25c-5.93 0-10.8 4.41-10.8 10.34v18.66h102v-18.66c0-5.93-5.02-10.34-10.95-10.34z" fill="#8f8fb7"/><path d="m116.2 415h-80.25c-5.93 0-10.95 4.41-10.95 10.34v18.66h102v-18.66c0-5.93-4.87-10.34-10.8-10.34z" fill="#8f8fb7"/><path d="m307.46 163.66 11.99 214.75h-127.48l12-214.75z" fill="#84a0a3"/><path d="m320.145 378h-128.845c-7.96 0-14.3 6.87-14.3 14.82v31.18h158v-31.18a15.162 15.162 0 0 0 -14.855-14.82z" fill="#a4bdc1"/><path d="m193 118h126v46h-126z" fill="#a4bdc1"/><path d="m301 35v35h-28v-35h-36v35h-28v-35h-37v83h166v-83z" fill="#84a0a3"/><path d="m162 424h30v51h-30z" fill="#6b8687"/><path d="m203.951 164-11.958 214h29.307.693l11.958-214z" fill="#6b8687"/><path d="m191.993 378h-.693c-7.96 0-14.3 6.87-14.3 14.82v31.18h30v-31.18c0-7.95 6.34-14.82 14.3-14.82z" fill="#8fa7aa"/><path d="m172 35h30v83h-30z" fill="#6b8687"/><path d="m303 35h28v35h-28z" fill="#6b8687"/><path d="m239 35h28v35h-28z" fill="#6b8687"/><path d="m193 118h30v46h-30z" fill="#8fa7aa"/><g fill="#284268"><path d="m136.326 438h-3.326v-12.665a16.774 16.774 0 0 0 -15.4-16.664l-7.282-116.071a5.779 5.779 0 0 0 5.682-6v-24.5c0-3.314-2.189-6.1-5.5-6.1h-8.02a39.185 39.185 0 0 0 13.758-30.044 39.873 39.873 0 0 0 -79.746-.012 39.208 39.208 0 0 0 13.756 30.056h-8.595a5.8 5.8 0 0 0 -5.653 6.1v24.5c0 3.313 2.34 6.4 5.653 6.4h1l-7.119 115.819a16.661 16.661 0 0 0 -16.534 16.516v12.665h-3.176a5.645 5.645 0 0 0 -5.824 5.752v33.391a5.732 5.732 0 0 0 5.824 5.857h120.5a5.609 5.609 0 0 0 5.676-5.857v-33.391a5.522 5.522 0 0 0 -5.674-5.752zm-87.837-212a27.873 27.873 0 1 1 27.873 27.873 27.9 27.9 0 0 1 -27.873-27.873zm-.489 42h56v13h-56zm6.679 25h43.85l7.015 116h-57.88zm-23.679 132.335c0-2.609 2.336-4.335 4.946-4.335h80.254c2.61 0 4.8 1.726 4.8 4.335v12.665h-90zm99 45.665h-108v-21h108z"/><path d="m496.176 438h-3.176v-12.665a16.84 16.84 0 0 0 -15.474-16.664l-7.245-116.071a5.809 5.809 0 0 0 5.719-6v-24.5a5.8 5.8 0 0 0 -5.653-6.1h-8.021a39.183 39.183 0 0 0 13.759-30.044 39.873 39.873 0 0 0 -79.745-.012 39.21 39.21 0 0 0 13.76 30.056h-8.6c-3.314 0-5.5 2.783-5.5 6.1v24.5c0 3.313 2.189 6.4 5.5 6.4h1l-7.047 115.819a16.6 16.6 0 0 0 -16.453 16.516v12.665h-3.326a5.522 5.522 0 0 0 -5.674 5.752v33.391a5.609 5.609 0 0 0 5.674 5.857h120.5a5.732 5.732 0 0 0 5.826-5.857v-33.391a5.645 5.645 0 0 0 -5.824-5.752zm-87.836-212a27.873 27.873 0 1 1 27.872 27.873 27.9 27.9 0 0 1 -27.872-27.873zm-.34 42h56v13h-56zm6.528 25h43.851l7.015 116h-57.88zm-23.528 132.335c0-2.609 2.186-4.335 4.8-4.335h80.258c2.61 0 4.946 1.726 4.946 4.335v12.665h-90.004zm99 45.665h-108v-21h108z"/><path d="m162.343 481h186.739a5.655 5.655 0 0 0 5.918-5.667v-51.745a5.592 5.592 0 0 0 -5.918-5.588h-8.082v-25.177a20.438 20.438 0 0 0 -15.6-19.582l-11.6-203.241h5.088a6.4 6.4 0 0 0 6.11-6.341v-39.659h13.144a5.564 5.564 0 0 0 5.858-5.618v-83.525a5.758 5.758 0 0 0 -5.856-5.857h-37.305a5.743 5.743 0 0 0 -5.839 5.857v29.143h-16v-29.143a5.743 5.743 0 0 0 -5.839-5.857h-36.1a5.932 5.932 0 0 0 -6.061 5.857v29.143h-16v-29.143a5.564 5.564 0 0 0 -5.617-5.857h-37.305a5.947 5.947 0 0 0 -6.078 5.857v83.525c0 3.314 2.765 5.618 6.078 5.618h14.922v39.659c0 3.313 2.222 6.341 5.535 6.341h5.07l-2.445 40.836a6.084 6.084 0 0 0 5.84 6.249v-.042a6.14 6.14 0 0 0 6.141-5.514l2.488-41.529h92.155l11.327 202h-114.811l6.759-120.874a5.913 5.913 0 0 0 -5.991-6.23 6.046 6.046 0 0 0 -5.99 5.717l-6.778 122.434a20.408 20.408 0 0 0 -15.3 19.776v25.177h-8.657c-3.314 0-6.343 2.274-6.343 5.588v51.745c0 3.313 3.029 5.667 6.343 5.667zm150.657-323h-114v-34h114zm-135-46v-71h25v29.247c0 3.314 3.069 5.753 6.383 5.753h27.678a5.742 5.742 0 0 0 5.939-5.753v-29.247h24v29.247a5.935 5.935 0 0 0 6.161 5.753h27.678a5.935 5.935 0 0 0 6.161-5.753v-29.247h25v71zm5 280.823c0-4.636 3.663-8.823 8.3-8.823h128.825a9.191 9.191 0 0 1 8.875 8.823v25.177h-146zm-15 37.177h175v39h-175z"/><path d="m216.263 349.137a6 6 0 0 0 5.823 6.171h.177a6 6 0 0 0 5.994-5.827l2.364-81.579a6 6 0 1 0 -11.994-.348z"/><path d="m225.862 225.009h.177a6 6 0 0 0 5.994-5.826l.79-27.249a6 6 0 1 0 -11.994-.348l-.79 27.249a6 6 0 0 0 5.823 6.174z"/><path d="m219.275 245.18a6 6 0 0 0 5.824 6.172h.176a6 6 0 0 0 6-5.826l.139-4.8a6 6 0 1 0 -11.994-.349z"/></g></svg>