<svg id="Layer_1" height="512" viewBox="0 0 512 512" width="512" xmlns="http://www.w3.org/2000/svg" data-name="Layer 1"><path d="m429.15 290.74h34.439v200.5h-34.439z" fill="#e1b7a3"/><path d="m11 290.74h34.44v200.5h-34.44z" fill="#e1b7a3"/><path d="m346.81 199.4c-2.85-22.51-18.77-40.99-41.76-51.98h-102.32a82.245 82.245 0 0 0 -26.31 19.53c-10.11 11.45-16.04 25.5-16.04 40.77l35.98 108.75h88.94l57.89-86.36v-.07a64.991 64.991 0 0 0 4.09-23.3 57.28 57.28 0 0 0 -.47-7.34z" fill="#bc4472"/><path d="m271.32 131.49-36.86.22c-18.91 2.19-32.24 7.47-32.24 13.64a4.584 4.584 0 0 0 .51 2.07c3.54 7.14 25.09 12.64 51.16 12.64s47.62-5.5 51.16-12.64a4.584 4.584 0 0 0 .51-2.07c0-6.39-14.28-11.82-34.24-13.86z" fill="#c64479"/><path d="m415.73 288.63a65.32 65.32 0 0 0 -3.37-10.8l-43.54-43.56-.08-.06a63.258 63.258 0 0 0 -10.73-3.3 83 83 0 0 0 -11.75-.87c-1.01 0-2.03.02-3.07.07a61.409 61.409 0 0 0 -9.37 1.1c-11.07 2.21-22.23 7.98-29.63 20.83l-38.89 64.43h149.27c2.73-9.95 2.26-20.18 1.16-27.84z" fill="#db863a"/><path d="m412.44 260.6-25.63-26.02c-7.37-3.79-13.95-4.49-17.28-1.16a5.819 5.819 0 0 0 -.71.85c-4.4 6.13-.78 21.34 10.72 32.83 11.48 11.48 26.69 15.11 32.82 10.73a6.692 6.692 0 0 0 .86-.72c3.21-3.22 2.67-9.46-.78-16.51z" fill="#d87012"/><path d="m45.44 316.47h383.71v174.77h-383.71z" fill="#c79a83"/><g fill="#619329"><path d="m493.91 205.75-26.05 12.54-62.9 45.03 96.04-34.87z"/><path d="m436.36 160.81-16.35 31.09-25.05 61.41 62.12-57.57 14.31-13.11z"/><path d="m253.66 39.38v17.92.01l6.23 47.19 14.37-19.66v-45.46z"/></g><path d="m248.84 20.76-22.71 8.94 6.35 30 21.41 62.53 6-17.73z" fill="#97c447"/><path d="m452.7 191.36-57.74 61.95 32.72-57.34-22.71-10.7-21.01 57.04c1 8.41 12.64 20.65 21 21.01l69.76-49.94z" fill="#97c447"/><path d="m206.42 166.95a82.245 82.245 0 0 1 26.31-19.53h-30a82.245 82.245 0 0 0 -26.31 19.53c-10.11 11.45-16.04 25.5-16.04 40.77l35.98 108.75h30l-31.083-93.948a56.873 56.873 0 0 1 10.841-55.228q.15-.172.302-.344z" fill="#a8436c"/><path d="m232.73 147.42a4.584 4.584 0 0 1 -.51-2.07c0-6.17 13.33-11.45 32.24-13.64l8.425-.05c-.518-.059-1.038-.116-1.565-.17l-36.86.22c-18.91 2.19-32.24 7.47-32.24 13.64a4.584 4.584 0 0 0 .51 2.07c3.54 7.14 25.09 12.64 51.16 12.64 5.219 0 10.251-.224 15-.634-18.971-1.637-33.329-6.295-36.16-12.006z" fill="#dd5492"/><path d="m45.44 316.47h30v174.77h-30z" fill="#af8472"/><path d="m268.06 80.35-14.17 41.88-13.31-62.53h-22.52l17.51 71.74.19.76s1.27 11.61 16.84 11.61c16.09 0 16.84-11.61 16.84-11.61l.45-1.23 14.2-39.01z" fill="#87e680"/><path d="m234.39 305.39c-6.1-24.1-23.59-45.96-42.44-62.97l-58.64-28.72-28 6.24-34.21 49.5c-5.38 14.36-9.73 30.83-10.39 47.03h175.65v-.91a91 91 0 0 0 -1.97-10.17z" fill="#7b358c"/><path d="m160.38 207.72c2.63 3.37 5.13 6.86 7.6 10.2 8.43 11.4 19.12 17.98 28.45 22.28a13.04 13.04 0 0 1 -4.48 2.22c-6.08 1.87-15.16 1.61-21.98-.2-20.45-5.43-24.39-27.11-36.66-28.52 1.74 5.63 6.8 15.18 2.71 25.73a34.423 34.423 0 0 0 -1.23 22.7c.2.79-19.54-5.4-24.01-22.23-1.17-4.43-.65-18.43-5.47-19.96-2.76-.87-3.12 6.73-3.5 7.86-2.49 7.29-6.06 17.68-13.91 26.87a79.226 79.226 0 0 1 -16.8 14.77c-1.91 1.26-3.68 2.3-5.27 3.17.35-.49 13.39-18.85 9.05-36.83-2.84-11.76 1.09-34.51 30.95-44.28-8.22-29.93-4.77-43.79 6.36-48.73 10.1-4.49 22.72.81 25.17 1.77 4.92 1.92 3.76 7.28 2.11 9.6-5.12 6.05-10.86-2.66-16.61.72-13.24 7.79.4 34.13.4 34.13 17.18-3.11 27.97 7.03 37.12 18.73z" fill="#619329"/><path d="m45.44 391.87h383.71v23.97h-383.71z" fill="#996b5c"/><g fill="#284268"><path d="m28.22 310.96a6.009 6.009 0 1 0 4.24 1.76 6.016 6.016 0 0 0 -4.24-1.76z"/><circle cx="28.22" cy="428.01" r="6"/><circle cx="28.22" cy="390.99" r="6"/><path d="m28.22 347.97a6 6 0 1 0 6 6.01 6.007 6.007 0 0 0 -6-6.01z"/><path d="m28.22 459.02a6.009 6.009 0 1 0 4.24 1.76 6.058 6.058 0 0 0 -4.24-1.76z"/><path d="m445.7 310.96a6.009 6.009 0 1 0 4.24 1.76 6.009 6.009 0 0 0 -4.24-1.76z"/><circle cx="445.699" cy="428.01" r="6"/><circle cx="445.699" cy="353.98" r="6"/><circle cx="445.699" cy="390.99" r="6"/><path d="m445.7 459.02a6.009 6.009 0 1 0 4.24 1.76 6.052 6.052 0 0 0 -4.24-1.76z"/><path d="m11 497.244h452.59a6 6 0 0 0 6-6v-200.506a6 6 0 0 0 -6-6h-34.437a6 6 0 0 0 -6 6v19.734h-1.253a80.281 80.281 0 0 0 -.233-22.695c-.021-.139-.046-.279-.075-.417a70.511 70.511 0 0 0 -2.353-8.264c2.395-3.846 2.73-9.022 1.009-14.942l82.8-30.061a6 6 0 0 0 3.679-7.429l-7.095-22.707a6 6 0 0 0 -8.33-3.616l-14.267 6.871-11.283-11.284 9.688-8.875a6 6 0 0 0 -.88-9.517l-35.029-21.818a6 6 0 0 0 -8.482 2.3l-13.863 26.372-9.656-4.548a6 6 0 0 0 -8.186 3.353l-16.008 43.451c-6.263-2.011-11.732-1.772-15.765.73a68.055 68.055 0 0 0 -8.328-2.338c-.126-.026-.254-.049-.383-.067q-3.889-.558-7.611-.782a74.145 74.145 0 0 0 2.034-17.446 62.832 62.832 0 0 0 -.616-8.7v-.007c-3.1-22.131-17.945-41.739-41.2-54.088-1.417-10.979-19.411-15.684-33.48-17.686l11.744-32.25a6 6 0 0 0 -2.119-6.913l-7.353-5.324v-42.4a6 6 0 0 0 -6-6h-17.7l-1.767-13.4a6 6 0 0 0 -8.147-4.8l-22.717 8.949a6 6 0 0 0 -3.671 6.826l4.82 22.752h-7.016a6 6 0 0 0 -5.83 7.424l15.969 65.374c-13.333 2.073-30.486 6.8-31.878 17.444a87.506 87.506 0 0 0 -23.474 17.894 5.969 5.969 0 0 0 -1.748 1.962 68.591 68.591 0 0 0 -15.2 29.988c-7.56-7.05-16.817-12.126-29.036-11.29-3.162-7.611-6.237-19.368-1.045-22.446a11.2 11.2 0 0 1 2.747.8c3.241 1.192 9.982 3.671 15.489-2.833q.164-.194.311-.4a13.778 13.778 0 0 0 2.04-11.433 11.157 11.157 0 0 0 -6.862-7.239l-.271-.107c-14.442-5.706-24.022-4-29.515-1.558-18.246 8.1-15.786 31.474-11.11 50.473-29.714 12.275-32.528 37.309-29.6 49.432 3.681 15.245-7.98 31.76-8.09 31.915a5.942 5.942 0 0 0 1.085 8.166 155.882 155.882 0 0 0 -6.933 33.2h-3.673v-19.73a6 6 0 0 0 -6-6h-34.437a6 6 0 0 0 -6 6v200.506a6 6 0 0 0 6 6zm424.153-81.38v-119.126h22.437v188.506h-22.437zm35.78-192.394 19.317-9.3 3.313 10.6-49.6 18.007zm-67.4 33.492a12.821 12.821 0 0 1 -2.6-1.263l51.92-55.7 12.62 12.621zm29.865-62.8a6 6 0 0 0 -3.165-3.621l-2.186-1.03 10.615-20.192 22.841 14.226-4.248 3.892-.315-.314a6 6 0 0 0 -8.632.151l-22.594 24.239 7.174-12.571a6 6 0 0 0 .512-4.782zm-40.998 42.607v-.006l15.944-43.275 10.913 5.141-27.34 47.909a15.294 15.294 0 0 1 -1.743-3.731zm-18.621.893c.377-.376 2.186-.709 5.413.246l-.86 2.332c-.015.044-.026.088-.041.132-.044.129-.087.259-.122.391-.019.071-.034.143-.051.214-.027.118-.052.236-.072.356-.016.09-.025.18-.036.27s-.025.2-.031.3-.009.218-.011.326v.258c0 .123.014.245.024.367 0 .056 0 .111.012.168 0 .024.009.048.012.072.01.073.022.145.035.218 1.025 7.507 6.875 14.181 9.372 16.724 5.558 5.66 11.858 9.041 17.286 9.275h.232.027.032a6.005 6.005 0 0 0 .777-.059c.055-.008.11-.014.165-.023l.095-.016a5.937 5.937 0 0 0 .708-.17l.1-.035c.038-.012.075-.026.112-.04.021-.007.041-.009.062-.016l1.934-.7c.677 2.73.366 4.271.031 4.605-.6.6-3.474 1.382-8.56.013a38.826 38.826 0 0 1 -16.635-10.019c-11.173-11.159-11.845-23.358-10.015-25.189zm-16.814-.841c1.425.305 2.839.678 4.257 1.1-1.394 9.769 3.831 23.171 14.079 33.419a50.433 50.433 0 0 0 22 13.122 31.772 31.772 0 0 0 8.206 1.162 22.889 22.889 0 0 0 3.174-.225c.439 1.441.826 2.876 1.138 4.293a66.437 66.437 0 0 1 -.073 20.777h-133.812l33.393-55.328.064-.107a35.5 35.5 0 0 1 17.028-15.3c-.321 12.543 4.927 26.287 14.068 35.063a6 6 0 1 0 8.311-8.657c-7.633-7.327-11.678-19.711-10.067-29.657a69.783 69.783 0 0 1 18.229.338zm-97.3-191.444h8.6v28.982a5.963 5.963 0 0 0 -5.79 3.849l-2.807-21.29zm-15.765-16.224 5.993 45.457-3.44-16.159a6 6 0 0 0 -5.868-4.751h-3.238l-4.3-20.273zm-18.2 36.547h10.024l11.954 56.165-1.794 5.3a6 6 0 0 0 11.367 3.846l2.289-6.766c.024-.067.048-.135.069-.2l11.512-34.019c.115.071.231.141.351.2l5.431 3.932-13.1 35.982a5.95 5.95 0 0 0 -.35 1.668c-.015.245-.5 6-10.85 6-9.2 0-10.66-5.1-10.877-6.323a3.391 3.391 0 0 0 -.132-.719zm5.692 72.462c2.669 5.549 8.915 11.652 21.208 11.652 12.839 0 19.02-6.3 21.484-11.967 15.209 1.922 23 5.544 25.1 7.507-3.143 2.993-18.288 8.708-45.3 8.708s-42.165-5.72-45.3-8.711c1.975-1.871 8.956-5.194 22.81-7.189zm-55.452 39.094a53.029 53.029 0 0 0 14.36 10.615c10.116 5.275 21.858 8.3 32.216 8.3a6 6 0 1 0 0-12c-8.364 0-18.333-2.595-26.667-6.941-5.426-2.829-9.76-6.211-12.13-9.361a76.315 76.315 0 0 1 17.681-13.033c10.776 8.637 36.016 11.226 52.5 11.226s41.729-2.59 52.5-11.231c18.893 10.157 30.862 25.2 34.033 42.528-8.781 8.641-18.906 12.99-45.733 13.977a6 6 0 0 0 .217 12h.225c21.774-.8 35.176-3.809 45.918-11.04a58.616 58.616 0 0 1 -2.3 12.131c-2 .206-3.949.489-5.845.862a5.937 5.937 0 0 0 -.773.166c-14.5 3.054-25.9 11.037-33.118 23.547l-37.1 61.477h-20.3c-.4-2.189-.862-4.381-1.413-6.557-6.266-24.759-23.44-45.953-38.612-60.68a5.984 5.984 0 0 0 -2.655-8.488c-11.279-5.2-19.831-11.865-26.142-20.393q-1.02-1.377-2.046-2.782c-1.393-1.9-2.833-3.863-4.333-5.827a54.233 54.233 0 0 1 9.519-28.496zm-92.525 38.409c4.376-8.41 12.544-14.622 24.277-18.463a6 6 0 0 0 3.919-7.29c-9.861-35.946-.17-40.248 3.015-41.662a16.338 16.338 0 0 1 6.692-1.269 37.276 37.276 0 0 1 13.528 3.013c-.023.093-.051.191-.082.283-.561-.136-1.432-.457-2.057-.686-2.928-1.078-7.827-2.879-12.89.1-5.508 3.241-11.294 10.47-7.57 26.514a74.39 74.39 0 0 0 5.681 15.546 6.008 6.008 0 0 0 6.4 3.145c14.06-2.557 23.031 5.87 31.421 16.649 1.785 2.294 3.545 4.693 5.321 7.117q1.046 1.425 2.08 2.828a71.473 71.473 0 0 0 16.685 16.151 40.031 40.031 0 0 1 -8.327-1.226c-9.255-2.457-14.528-9.05-19.625-15.427-4.848-6.063-9.86-12.331-17.891-13.251a6 6 0 0 0 -6.415 7.733c.332 1.075.742 2.2 1.176 3.389 1.9 5.214 4.267 11.7 1.67 18.394a42.063 42.063 0 0 0 -3 15.052c-4.347-2.918-9.129-7.5-10.843-13.952a44.337 44.337 0 0 1 -.583-4.668c-.736-7.654-1.652-17.18-8.878-19.466a7.188 7.188 0 0 0 -6.061.75c-3.688 2.3-4.4 7.015-4.918 10.461-.041.272-.076.513-.109.706-2.378 6.96-5.653 16.386-12.7 24.632q-1.355 1.589-2.8 3.09a42.766 42.766 0 0 0 .169-19.491 27.526 27.526 0 0 1 2.715-18.702zm-7.345 57.651a84.626 84.626 0 0 0 16.392-14.751 72.492 72.492 0 0 0 11.945-20.365 24.739 24.739 0 0 0 .578 3.236c2.741 10.319 10.011 17 15.627 20.78.106.071 10.6 7.085 15.635 5.782a6.091 6.091 0 0 0 4.363-7.338 28.5 28.5 0 0 1 1-19.063 29.1 29.1 0 0 0 1.928-11.831c5.553 6.9 12.584 14.982 24.89 18.249a54.486 54.486 0 0 0 21.807.976c14.658 13.639 32.337 34.155 38.337 57.865.3 1.2.572 2.407.823 3.614h-162.243a153.478 153.478 0 0 1 8.918-37.154zm-24.633 49.156h371.716v63.4h-371.716zm0 75.4h371.716v11.974h-371.716zm0 23.974h371.716v63.4h-371.716zm-34.437-125.108h22.437v188.506h-22.437z"/></g></svg>