<svg id="Layer_1" height="512" viewBox="0 0 512 512" width="512" xmlns="http://www.w3.org/2000/svg" data-name="Layer 1"><path d="m458.02 171.72.45 23.64h-128.21v-23.64z" fill="#56637b"/><path d="m462.17 195.36h-137.72a11.973 11.973 0 0 0 -11.98 11.97v16.12h161.68v-16.12a11.973 11.973 0 0 0 -11.98-11.97z" fill="#4b4d62"/><path d="m466.52 223.45v.16l-5.89 40.52-.43-.06h-137.32l-4.78-40.47v-.15z" fill="#c79a83"/><path d="m460.63 264.13-11.84 81.58h-116.15l-.11.01-9.65-81.65h137.32z" fill="#eb7288"/><path d="m448.79 345.71-7.38 50.79h-102.88l-6-50.78.11-.01z" fill="#c79a83"/><path d="m11 434.31h490v27h-490z" fill="#4689d3"/><path d="m473 396.5h-434a28.005 28.005 0 0 0 -28 28v9.81h490v-9.81a28.005 28.005 0 0 0 -28-28z" fill="#5fa8ed"/><path d="m279.87 343.8v22.8h-208.09a13.636 13.636 0 0 1 -13.64-13.63v-9.17z" fill="#b0b5ca"/><path d="m58.14 314.55h221.73v29.25h-221.73z" fill="#ccd3df"/><path d="m71.78 290.55h213.94a14.954 14.954 0 0 0 14.96-14.95v-.65a14.954 14.954 0 0 0 -14.96-14.95h-235.81a22.325 22.325 0 0 0 -22.33 22.32v91.87a22.323 22.323 0 0 0 22.33 22.31h235.81a14.95 14.95 0 1 0 0-29.9h-213.94a13.636 13.636 0 0 1 -13.64-13.63v-48.79a13.636 13.636 0 0 1 13.64-13.63z" fill="#a0eaea"/><path d="m279.87 290.55v24h-221.73v-10.37a13.636 13.636 0 0 1 13.64-13.63z" fill="#b0b5ca"/><path d="m58.75 215.1v8.03a11.467 11.467 0 0 0 11.47 11.46h174.95v-19.49z" fill="#d4e1f4"/><path d="m70.22 170.65a11.467 11.467 0 0 0 -11.47 11.46v8.61h186.42v-20.07z" fill="#d4e1f4"/><path d="m213.16 100.1v24.22h-143.72a9.417 9.417 0 0 1 -9.42-9.42v-14.8z" fill="#b0b5ca"/><path d="m213.16 71.79v28.31h-153.14v-18.9a9.408 9.408 0 0 1 9.42-9.41z" fill="#ccd3df"/><path d="m69.44 71.79h147.76a10.33 10.33 0 0 0 10.33-10.33v-.44a10.33 10.33 0 0 0 -10.33-10.33h-162.87a15.413 15.413 0 0 0 -15.42 15.41v63.45a15.415 15.415 0 0 0 15.42 15.42h162.87a10.325 10.325 0 1 0 0-20.65h-147.76a9.417 9.417 0 0 1 -9.42-9.42v-33.7a9.408 9.408 0 0 1 9.42-9.41z" fill="#cc443a"/><path d="m58.75 190.72h186.42v24.38h-186.42z" fill="#b0b5ca"/><path d="m70.22 170.65h179.87a12.575 12.575 0 0 0 12.58-12.57v-.54a12.569 12.569 0 0 0 -12.58-12.57h-198.26a18.763 18.763 0 0 0 -18.77 18.76v77.24a18.909 18.909 0 0 0 18.66 19.03h198.37v-.27a12.57 12.57 0 1 0 0-25.14h-179.87a11.467 11.467 0 0 1 -11.47-11.46v-41.02a11.467 11.467 0 0 1 11.47-11.46z" fill="#56568c"/><path d="m410.24 286.84-3.36 6.04a25.579 25.579 0 0 1 -13.88 11.85l-2.41.84a21.412 21.412 0 0 0 -11.52 9.75l-4.79 8.49c-6.59-7.09-3.88-21.11 6.05-31.32s23.32-12.74 29.91-5.65z" fill="#56637b"/><path d="m410.24 286.84c6.58 7.09 3.87 21.11-6.06 31.32s-23.32 12.74-29.9 5.65l4.79-8.49a21.412 21.412 0 0 1 11.52-9.75l2.41-.84a25.579 25.579 0 0 0 13.88-11.85z" fill="#4b4d62"/><path d="m123.6 190.72v87.2a1.239 1.239 0 0 0 1.98.99l19.78-14.86a1.771 1.771 0 0 1 2.09-.02l20.85 14.96a1.235 1.235 0 0 0 1.95-1.01v-87.26z" fill="#f3ce7d"/><path d="m11 434h27v27h-27z" fill="#3d78ad"/><path d="m66 397h-27c-15.46 0-28 12.04-28 27.5v9.5h27v-9.5c0-15.46 12.54-27.5 28-27.5z" fill="#5291c6"/><path d="m55 374.19v-91.87a21.97 21.97 0 0 1 21.91-22.32h-27a21.97 21.97 0 0 0 -21.91 22.32v91.87c0 12.32 9.58 22.81 21.91 22.81h27c-12.33 0-21.91-10.49-21.91-22.81z" fill="#84c1bf"/><path d="m60 240.97-1-17.84v-41.13l1-18.325a18.742 18.742 0 0 1 18.83-18.675h-27a18.789 18.789 0 0 0 -18.83 18.73v77.24a18.959 18.959 0 0 0 18.72 19.03h27a18.959 18.959 0 0 1 -18.72-19.03z" fill="#464668"/><path d="m59 129.55v-63.45a15.075 15.075 0 0 1 15.33-15.1h-20a15.075 15.075 0 0 0 -15.33 15.1v63.45a15.364 15.364 0 0 0 15.33 15.45h20a15.364 15.364 0 0 1 -15.33-15.45z" fill="#a83b38"/><g fill="#284268"><path d="m384 333.826h.267c8.173 0 17.206-4.279 24.217-11.487 12.313-12.658 15.016-30.046 6.153-39.586a19.019 19.019 0 0 0 -14.114-5.934c-.089 0-.178 0-.267 0-8.174 0-17.207 4.28-24.218 11.488-12.313 12.657-15.016 30.046-6.153 39.586a19.018 19.018 0 0 0 14.115 5.933zm15.883-19.853c-4.724 4.856-10.689 7.854-15.608 7.854h-.138a10.205 10.205 0 0 1 -1.753-.167l1.916-3.391a15.371 15.371 0 0 1 8.266-7.033l2.4-.837a31 31 0 0 0 11.807-7.467 29.283 29.283 0 0 1 -6.894 11.041zm-15.244-17.3c4.724-4.856 10.69-7.855 15.609-7.855h.137a10.082 10.082 0 0 1 1.8.177l-.541.976a19.579 19.579 0 0 1 -10.616 9.094l-2.4.837a26.935 26.935 0 0 0 -10.522 6.781 29.853 29.853 0 0 1 6.529-10.01z"/><path d="m473 390.5h-24.659l23.4-161.057h2.411a6 6 0 0 0 6-6v-16.108a17.992 17.992 0 0 0 -15.789-17.828l-.336-17.9a6 6 0 0 0 -6-5.887h-127.764a6 6 0 0 0 -6 6v17.65a17.99 17.99 0 0 0 -17.791 17.965v16.112a6 6 0 0 0 6 6h.278l19.026 161.053h-27.135a20.9 20.9 0 0 0 -18.771-29.89v-64.067a20.972 20.972 0 0 0 20.808-20.943v-.65a20.977 20.977 0 0 0 -20.955-20.95h-18.377a18.513 18.513 0 0 0 -16.173-25.353v-52.047a18.581 18.581 0 0 0 17.494-18.516v-.546a18.593 18.593 0 0 0 -18.574-18.57h-17.166a16.256 16.256 0 0 0 -13.771-20.522v-40.785a16.343 16.343 0 0 0 14.371-16.2v-.449a16.346 16.346 0 0 0 -16.327-16.322h-162.87a21.44 21.44 0 0 0 -21.418 21.41v63.449a21.306 21.306 0 0 0 4.988 13.716 24.754 24.754 0 0 0 -10.84 20.464v77.24a25.135 25.135 0 0 0 7.261 17.719 28.309 28.309 0 0 0 -12.74 23.629v91.869a28.185 28.185 0 0 0 6.56 18.1 34.007 34.007 0 0 0 -23.141 32.214v36.81a6 6 0 0 0 6 6h490a6 6 0 0 0 6-6v-36.81a34 34 0 0 0 -34-34zm-136.737-212.78h115.873l.218 11.64h-116.091zm-17.791 29.615a5.983 5.983 0 0 1 5.975-5.975h137.726a5.982 5.982 0 0 1 5.975 5.975v10.112h-149.676zm6.361 22.112h134.779l-4.159 28.627h-127.238zm4.8 40.627h124.077l-10.11 69.631h-105.741zm112.219 81.631-5.636 38.8h-92.356l-4.584-38.8zm-156.129-85.705a8.963 8.963 0 0 1 8.955 8.951v.65a8.963 8.963 0 0 1 -8.955 8.95h-113.7c.1-.046.2-.082.3-.133a7.2 7.2 0 0 0 3.929-6.434v-11.984zm-221.581 71.8v-17.252h209.728v17.252zm209.728 12v10.8h-202.093a7.641 7.641 0 0 1 -7.635-7.631v-3.169zm-209.728-41.252v-4.366a7.641 7.641 0 0 1 7.635-7.631h202.093v12zm.612-99.452v-12.376h52.846v12.38zm52.85 12v7.5h-47.386a5.468 5.468 0 0 1 -5.464-5.46v-2.036zm-52.85-36.376v-2.608a5.469 5.469 0 0 1 5.464-5.46h168.955v8.068zm111.495 24.38v-12.38h62.924v12.38zm62.924 12v7.5h-62.924v-7.5zm-74.924-24.38v71.98l-13.3-9.542a7.732 7.732 0 0 0 -9.192.1l-12.157 9.122v-71.66zm-35.068 86.98 17.3-12.986 18.319 13.148a7.317 7.317 0 0 0 1.214.689h-38.314a7.274 7.274 0 0 0 1.481-.851zm127.486-36.541a6.579 6.579 0 0 1 -6.574 6.57v.271h-73.844v-13.407h73.844a6.579 6.579 0 0 1 6.574 6.569zm-211.755-181.059a9.427 9.427 0 0 1 9.418-9.41h162.87a4.333 4.333 0 0 1 4.329 4.326v.449a4.332 4.332 0 0 1 -4.329 4.325h-147.764a15.433 15.433 0 0 0 -15.417 15.41v33.7a15.433 15.433 0 0 0 15.417 15.414h147.764a4.326 4.326 0 1 1 0 8.651h-162.87a9.426 9.426 0 0 1 -9.418-9.413zm21.107 28v-12.9a3.419 3.419 0 0 1 3.417-3.414h137.72v16.314zm141.137 12v12.212h-137.72a3.419 3.419 0 0 1 -3.417-3.414v-8.8zm-168.096 57.629a12.78 12.78 0 0 1 12.769-12.763h198.264a6.579 6.579 0 0 1 6.574 6.57v.546a6.579 6.579 0 0 1 -6.574 6.57h-179.875a17.481 17.481 0 0 0 -17.464 17.46v41.021a17.481 17.481 0 0 0 17.464 17.46h47.382v13.407h-65.876a12.866 12.866 0 0 1 -12.664-13.031zm455.94 291.581h-478v-15h478zm0-27h-478v-3.81a22 22 0 0 1 22-22h48.6a6 6 0 0 0 0-12h-37.7a16.339 16.339 0 0 1 -16.324-16.318v-91.865a16.339 16.339 0 0 1 16.329-16.317h67.7v11.919a7.2 7.2 0 0 0 4 6.471c.127.063.259.105.388.161h-50.216a19.655 19.655 0 0 0 -19.635 19.631v48.79a19.655 19.655 0 0 0 19.635 19.628h213.946a8.951 8.951 0 1 1 0 17.9h-156.123a6 6 0 0 0 0 12h343.4a22 22 0 0 1 22 22z"/></g></svg>