<svg id="Layer_1" height="512" viewBox="0 0 512 512" width="512" xmlns="http://www.w3.org/2000/svg" data-name="Layer 1"><path d="m406.2 108.5-391.99-.573.82 380.628a12.563 12.563 0 0 0 12.68 12.523l368.15-1.6a12.492 12.492 0 0 0 12.375-12.661z" fill="#bbf4fc"/><path d="m45.03 488.555-.82-380.584-30-.044.82 380.628a12.563 12.563 0 0 0 12.68 12.523l28.273-.123a12.538 12.538 0 0 1 -10.953-12.4z" fill="#93b9bc"/><path d="m407.72 395.11-103.92 104.77h-.01l-.34-78.23a26.089 26.089 0 0 1 25.98-26.2z" fill="#a5e2fb"/><path d="m406.1 54.855a12.692 12.692 0 0 0 -12.68-12.637l-366.76 1.561a12.6 12.6 0 0 0 -12.56 12.63l.11 51.518 391.99.573zm-350.87 33.105a14.545 14.545 0 1 1 14.55-14.55 14.551 14.551 0 0 1 -14.55 14.55zm62.35 0a14.545 14.545 0 1 1 14.55-14.55 14.551 14.551 0 0 1 -14.55 14.55zm62.35 0a14.545 14.545 0 1 1 14.55-14.55 14.542 14.542 0 0 1 -14.55 14.55zm62.36 0a14.545 14.545 0 1 1 14.54-14.55 14.545 14.545 0 0 1 -14.54 14.55zm62.35 0a14.545 14.545 0 1 1 14.55-14.55 14.545 14.545 0 0 1 -14.55 14.55zm62.35 0a14.545 14.545 0 1 1 14.55-14.55 14.545 14.545 0 0 1 -14.55 14.55z" fill="#86909d"/><path d="m489.59 153.42a28.473 28.473 0 0 0 -40.26-.05l-19.93 19.85.04.04 40.17 40.28 19.93-19.85a28.464 28.464 0 0 0 .05-40.27z" fill="#56637b"/><path d="m449.54 193.42-103.97 103.43 20.11 20.16 103.93-103.47z" fill="#b75a6e"/><path d="m429.44 173.26-.04-.04-103.94 103.47 20.11 20.16 103.97-103.43z" fill="#e87187"/><path d="m325.46 276.69-20.21 60.38 60.43-20.06z" fill="#c79a83"/><path d="m56.657 44h-30a12.484 12.484 0 0 0 -12.557 12.52l.012 51.463 30 .016v-25.151a14.539 14.539 0 0 1 0-18.806l-.01-7.52a12.488 12.488 0 0 1 12.555-12.522z" fill="#616972"/><g fill="#284268"><path d="m304.629 257.642a6 6 0 0 0 -6.652-5.268c-1.05.122-2.1.225-3.146.329-8.755.868-18.678 1.852-29.286 12.461s-11.592 20.53-12.461 29.285c-.8 8.051-1.428 14.409-9 21.984s-13.936 8.208-21.987 9.006c-8.755.869-18.678 1.854-29.288 12.463s-11.594 20.533-12.462 29.287c-.8 8.052-1.43 14.411-9.007 21.988a6 6 0 0 0 8.485 8.485c10.61-10.609 11.594-20.533 12.463-29.287.8-8.052 1.43-14.411 9.007-21.987s13.936-8.208 21.987-9.007c8.755-.869 18.678-1.854 29.287-12.463s11.592-20.53 12.46-29.285c.8-8.05 1.429-14.409 9-21.984s13.934-8.206 21.985-9c1.114-.111 2.229-.222 3.346-.352a6 6 0 0 0 5.269-6.655z"/><path d="m312.246 247.851a5.979 5.979 0 0 0 4.242-1.758l7.439-7.439a6 6 0 1 0 -8.485-8.485l-7.442 7.439a6 6 0 0 0 4.243 10.243z"/><path d="m335.69 224.406a5.979 5.979 0 0 0 4.243-1.758l7.439-7.439a6 6 0 0 0 -8.485-8.485l-7.439 7.439a6 6 0 0 0 4.242 10.243z"/><path d="m190.873 311.784a6 6 0 1 0 -1.384-11.92c-1.05.122-2.1.225-3.147.329-8.755.869-18.677 1.852-29.286 12.461s-11.592 20.531-12.46 29.285c-.8 8.05-1.429 14.409-9 21.984s-13.936 8.208-21.987 9.007c-8.755.869-18.678 1.853-29.288 12.463s-11.597 20.532-12.466 29.287c-.8 8.051-1.43 14.41-9.007 21.987a6 6 0 1 0 8.485 8.485c10.61-10.609 11.594-20.532 12.463-29.287.8-8.051 1.43-14.41 9.007-21.987s13.936-8.208 21.987-9.007c8.755-.869 18.678-1.853 29.287-12.462s11.592-20.531 12.461-29.285c.8-8.051 1.428-14.41 9-21.985s13.934-8.206 21.984-9c1.119-.115 2.234-.226 3.351-.355z"/><path d="m206.953 277.659-7.439 7.439a6 6 0 1 0 8.486 8.485l7.438-7.438a6 6 0 0 0 -8.485-8.486z"/><path d="m230.4 254.215-7.439 7.439a6 6 0 0 0 8.485 8.485l7.439-7.439a6 6 0 1 0 -8.485-8.485z"/><path d="m110.739 334.579a5.982 5.982 0 0 0 4.243-1.757c10.609-10.61 11.594-20.533 12.462-29.288.8-8.051 1.431-14.41 9.007-21.987s13.936-8.208 21.987-9.006c8.755-.869 18.678-1.854 29.288-12.463s11.591-20.531 12.46-29.285c.8-8.05 1.428-14.409 9-21.984s13.935-8.206 21.985-9c1.115-.111 2.23-.221 3.347-.351a6 6 0 1 0 -1.384-11.92c-1.05.122-2.1.226-3.147.33-8.754.868-18.677 1.852-29.286 12.46s-11.592 20.531-12.46 29.285c-.8 8.051-1.429 14.41-9 21.985s-13.941 8.202-21.988 9.002c-8.754.869-18.678 1.854-29.287 12.463s-11.594 20.532-12.463 29.287c-.8 8.051-1.43 14.411-9.006 21.987a6 6 0 0 0 4.242 10.243z"/><path d="m247.405 183.01a5.982 5.982 0 0 0 4.243-1.757l7.439-7.439a6 6 0 0 0 -8.485-8.485l-7.439 7.439a6 6 0 0 0 4.242 10.242z"/><path d="m270.85 159.565a5.984 5.984 0 0 0 4.243-1.757l7.439-7.439a6 6 0 0 0 -8.486-8.485l-7.439 7.439a6 6 0 0 0 4.243 10.242z"/><path d="m47 123.538a6 6 0 0 0 -6 6v4.295a6 6 0 0 0 12 0v-4.295a6 6 0 0 0 -6-6z"/><path d="m47 148.833a6 6 0 0 0 -6 6v116a6 6 0 0 0 12 0v-116a6 6 0 0 0 -6-6z"/><path d="m445.1 149.12-32.312 32.17-.688-126.585a18.689 18.689 0 0 0 -18.7-18.545l-20.4.07v-25.23a6 6 0 0 0 -12 0v25.282l-50 .22v-25.502a6 6 0 0 0 -12 0v25.554l-51 .22v-25.774a6 6 0 0 0 -12 0v25.826l-50 .22v-26.046a6 6 0 0 0 -12 0v26.1l-50 .22v-26.32a6 6 0 0 0 -12 0v26.37l-51 .22v-26.59a6 6 0 0 0 -12 0v26.643l-22.477.1a18.605 18.605 0 0 0 -18.485 18.663l.962 432.011a18.648 18.648 0 0 0 18.653 18.583h.347l368.02-1.49a18.61 18.61 0 0 0 18.48-18.656l-1.16-208.831 80.437-80.087a34.47 34.47 0 0 0 -48.677-48.816zm-15.721 32.58 11.672 11.7-95.463 94.97-11.634-11.665zm-74.805 132.676-39.826 13.224 13.324-39.8zm12.414-249.51a8.549 8.549 0 1 1 -8.548 8.549 8.559 8.559 0 0 1 8.548-8.549zm-62.351 0a8.549 8.549 0 1 1 -8.549 8.549 8.559 8.559 0 0 1 8.549-8.549zm-62.351 0a8.549 8.549 0 1 1 -8.549 8.549 8.558 8.558 0 0 1 8.549-8.549zm-62.352 0a8.549 8.549 0 1 1 -8.548 8.549 8.559 8.559 0 0 1 8.548-8.549zm-62.351 0a8.549 8.549 0 1 1 -8.549 8.549 8.558 8.558 0 0 1 8.549-8.549zm-62.352 0a8.549 8.549 0 1 1 -8.548 8.549 8.559 8.559 0 0 1 8.548-8.549zm-35.193-8.334a6.718 6.718 0 0 1 6.537-6.791l22.425-.098v4.122a21 21 0 0 0 -14.433 19.65 20.535 20.535 0 1 0 41.069 0 19.964 19.964 0 0 0 -14.636-19.65v-4.175l51-.219v4.394a20.07 20.07 0 0 0 -14.757 19.65 20.482 20.482 0 0 0 20.445 20.548 20.705 20.705 0 0 0 20.7-20.548 20.966 20.966 0 0 0 -14.388-19.65v-4.447l50-.219v4.666c-8 2.574-14.581 10.406-14.581 19.65a20.553 20.553 0 0 0 41.1 0 21.085 21.085 0 0 0 -14.519-19.65v-4.719l50-.22v4.939a20.979 20.979 0 0 0 -14.406 19.65 20.531 20.531 0 1 0 41.062 0 19.982 19.982 0 0 0 -14.656-19.65v-4.991l51-.22v5.211a20.046 20.046 0 0 0 -14.73 19.65 20.571 20.571 0 0 0 41.142 0 20.984 20.984 0 0 0 -14.412-19.65v-5.265l50-.22v5.483c-8 2.574-14.554 10.406-14.554 19.65a20.549 20.549 0 0 0 41.1 0 21.1 21.1 0 0 0 -14.546-19.648v-5.535l20.453-.089a6.782 6.782 0 0 1 6.65 6.742l.251 47.117h-380.16zm277.724 437.375-270.08 1.093h-.028a6.582 6.582 0 0 1 -4.669-1.925 6.239 6.239 0 0 1 -1.954-4.532l-.811-374.543h380.2l.429 79.175-79.616 79.266a5.993 5.993 0 0 0 -1.45 2.349h-.006l-20.217 60.379a6 6 0 0 0 7.579 7.6l60.431-20.061-.007-.022a5.938 5.938 0 0 0 2.35-1.42l31.475-31.338.529 99.212-72.5.317a32.09 32.09 0 0 0 -31.964 32.221zm11.684-72.282a20.089 20.089 0 0 1 20.012-20.17l63.8-.279-83.529 84.213zm86.39 71.885-77.577.314 83.757-84.441.418 77.5a6.637 6.637 0 0 1 -6.598 6.627zm-30.144-184.98-11.63-11.661 95.462-94.97 11.592 11.622zm119.614-119.094-15.686 15.618-31.737-31.82 15.683-15.614a22.47 22.47 0 0 1 31.74 31.816z"/></g></svg>