<svg id="Layer_1" height="512" viewBox="0 0 512 512" width="512" xmlns="http://www.w3.org/2000/svg" data-name="Layer 1"><path d="m110.19 68.71v18.69h.15 293.34v-18.69z" fill="#787189"/><path d="m110.34 50.32h-.15v18.39h293.49v-18.39z" fill="#978cac"/><path d="m238 101h35v271h-35z" fill="#5fa8ed"/><path d="m302.5 368h-93a4 4 0 0 0 -4 4v35.97l101 .04v-36.01a4 4 0 0 0 -4-4z" fill="#e87187"/><path d="m222.08 50.32a37.84 37.84 0 0 1 67.08 0 39.288 39.288 0 0 1 -.16 37.08 38.541 38.541 0 0 1 -15.72 15.63 37.64 37.64 0 0 1 -35.32 0 38.541 38.541 0 0 1 -15.72-15.63 39.288 39.288 0 0 1 -.16-37.08z" fill="#e87187"/><ellipse cx="255.62" cy="68.71" fill="#978cac" rx="17.19" ry="17.46"/><path d="m493.22 267.14h-147.41a10.453 10.453 0 0 0 -10.19 12.05 86.337 86.337 0 0 0 28.07 52.69 83.671 83.671 0 0 0 55.82 21.32c42.77 0 78.13-32.19 83.9-74.01a10.459 10.459 0 0 0 -10.19-12.05z" fill="#e87187"/><path d="m466 58.42v20.87a4.076 4.076 0 0 1 -4.04 4.11h-22.18v-29.08h22.18a4.074 4.074 0 0 1 4.04 4.1z" fill="#978cac"/><path d="m166.19 267.14h-147.41a10.459 10.459 0 0 0 -10.19 12.05 86.387 86.387 0 0 0 28.07 52.69 83.677 83.677 0 0 0 55.83 21.32c42.76 0 78.12-32.19 83.89-74.01a10.453 10.453 0 0 0 -10.19-12.05z" fill="#e87187"/><path d="m74.09 54.32v29.08h-24.05a4.076 4.076 0 0 1 -4.04-4.11v-20.87a4.074 4.074 0 0 1 4.04-4.1z" fill="#978cac"/><path d="m402 39h39v60h-39z" fill="#5fa8ed"/><path d="m73 39h39v60h-39z" fill="#5fa8ed"/><path d="m209.5 368c-2.21 0-4.5 1.79-4.5 4v36h30v-36c0-2.21 2.29-4 4.5-4z" fill="#ba6073"/><path d="m38.59 279.12a10.518 10.518 0 0 1 10.19-12.12h-30a10.518 10.518 0 0 0 -10.19 12.12 86.475 86.475 0 0 0 28.07 52.725 83.775 83.775 0 0 0 70.828 19.988 83.977 83.977 0 0 1 -40.828-19.992 86.465 86.465 0 0 1 -28.07-52.721z" fill="#ba6073"/><path d="m407.99 450.93h-304.73c26.03-10.52 22.86-19.19 40.96-31.78 18.02-12.52 41.28-13.19 41.28-13.19l20 .01 101 .04 18.96.01s23.55.61 41.56 13.13c18.1 12.59 14.93 21.26 40.97 31.78z" fill="#b0b5ca"/><path d="m174.22 419.185c16.78-11.659 38.094-13.059 40.949-13.194l-9.669-.012-20-.015s-23.26.7-41.28 13.223c-18.1 12.59-14.93 20.813-40.96 31.813h30c26.03-11 22.86-19.225 40.96-31.815z" fill="#9a9faf"/><path d="m427.47 449.93h-333.7a20.7 20.7 0 0 0 -20.7 20.7v10.37h375.1v-10.37a20.7 20.7 0 0 0 -20.7-20.7z" fill="#6d7486"/><path d="m123.77 450h-30a20.7 20.7 0 0 0 -20.77 20.63v10.37h30v-10.37a20.7 20.7 0 0 1 20.77-20.63z" fill="#4d515b"/><g fill="#284268"><path d="m166 423h-2a6 6 0 0 0 0 12h2a6 6 0 0 0 0-12z"/><path d="m180 429a6 6 0 0 0 6 6h92a6 6 0 0 0 0-12h-92a6 6 0 0 0 -6 6z"/><path d="m255.621 45.254a23.461 23.461 0 1 0 23.189 23.459 23.351 23.351 0 0 0 -23.189-23.459zm0 34.919a11.463 11.463 0 1 1 11.189-11.46 11.339 11.339 0 0 1 -11.189 11.46z"/><path d="m493.222 261.145h-7.559l-53.493-155.71h8.612a6 6 0 0 0 6-6v-10.035h15.18a10.081 10.081 0 0 0 10.038-10.106v-20.871a10.081 10.081 0 0 0 -10.038-10.1h-15.18v-8.837a6 6 0 0 0 -6-6h-39.1a6 6 0 0 0 -6 6v4.836h-103.118a43.74 43.74 0 0 0 -73.886 0h-100.489v-4.836a6 6 0 0 0 -6-6h-39.1a6 6 0 0 0 -6 6v8.836h-17.051a10.081 10.081 0 0 0 -10.038 10.101v20.871a10.081 10.081 0 0 0 10.038 10.106h17.049v10.04a6 6 0 0 0 6 6h7.047l-53.492 155.705h-7.864a16.181 16.181 0 0 0 -12.195 5.564 16.748 16.748 0 0 0 -3.937 13.3 92.39 92.39 0 0 0 30.028 56.349 89.736 89.736 0 0 0 119.624 0 92.39 92.39 0 0 0 30.028-56.349 16.74 16.74 0 0 0 -3.937-13.3 16.181 16.181 0 0 0 -12.2-5.564h-7.765l-53.492-155.71h7.252a6 6 0 0 0 6-6v-6.035h100.677a44.806 44.806 0 0 0 13.1 13.028v255.572h-22.461a10.011 10.011 0 0 0 -10 10v27.962l-14-.006h-.177c-1.023.03-25.266.884-44.527 14.267a79.7 79.7 0 0 0 -15.618 14.322c-5.267 5.968-9.461 10.719-23.091 16.38h-8.315a26.729 26.729 0 0 0 -26.7 26.7v10.375a6 6 0 0 0 6 6h375.095a6 6 0 0 0 6-6v-10.375a26.728 26.728 0 0 0 -26.7-26.7h-18.311c-13.631-5.661-17.824-10.412-23.091-16.381a79.74 79.74 0 0 0 -15.619-14.321c-19.268-13.389-43.8-14.177-44.834-14.2-.051 0-.1 0-.154 0l-12.958-.006v-28.017a10.011 10.011 0 0 0 -10-10h-23.215v-255.578a44.775 44.775 0 0 0 13.095-13.022h103.3v6.04a6 6 0 0 0 6 6h5.688l-53.493 155.71h-8.069a16.181 16.181 0 0 0 -12.195 5.564 16.74 16.74 0 0 0 -3.937 13.3 92.39 92.39 0 0 0 30.026 56.344 89.736 89.736 0 0 0 119.624 0 92.383 92.383 0 0 0 30.027-56.349 16.74 16.74 0 0 0 -3.937-13.3 16.179 16.179 0 0 0 -12.192-5.564zm-46.44-200.823h13.218v17.078h-13.218zm-379.695 17.078h-15.087v-17.078h15.087zm19.552 46.04v137.71h-47.309zm79.555 149.71a4.148 4.148 0 0 1 3.149 1.449 4.744 4.744 0 0 1 1.095 3.776c-5.411 39.238-38.923 68.828-77.952 68.828s-72.541-29.59-77.952-68.828a4.749 4.749 0 0 1 1.1-3.776 4.144 4.144 0 0 1 3.148-1.449zm-20.453-12h-47.1v-137.115zm-39.552-167.715h-27.1v-47.949h27.1zm12-37.113h95.055a44.989 44.989 0 0 0 -1.328 6.391h-93.727zm0 25.073v-6.682h93.727a44.851 44.851 0 0 0 1.41 6.682zm207.163 330.624c1.3.05 22.411 1.057 38.247 12.06a67.684 67.684 0 0 1 13.468 12.407 75.491 75.491 0 0 0 8.331 8.441h-186.398a6 6 0 0 0 0 12h228.47a14.7 14.7 0 0 1 14.7 14.7v4.373h-363.096v-4.375a14.7 14.7 0 0 1 14.7-14.7h65.226a6 6 0 0 0 0-12h-33.157a75.5 75.5 0 0 0 8.332-8.441 67.628 67.628 0 0 1 13.468-12.407c15.822-10.994 36.644-12.066 37.963-12.123zm-24.852-38.019v26.007l-89-.039v-25.968zm-56.543-12v-250.176a43.237 43.237 0 0 0 23.328 0v250.176zm11.664-260.573c-17.707 0-32.113-14.675-32.113-32.714s14.406-32.713 32.113-32.713 32.113 14.675 32.113 32.713-14.406 32.714-32.113 32.714zm140.059-20.027h-97.764a44.976 44.976 0 0 0 1.409-6.682h96.355zm0-18.682h-96.355a44.85 44.85 0 0 0 -1.325-6.396h97.68zm77.3 198.432h-47.314v-137.714zm-65.3-215.664h27.1v47.949h-27.1zm5.986 78.549v137.11h-47.1zm83.8 154.335c-5.411 39.238-38.923 68.828-77.952 68.828s-72.541-29.59-77.953-68.828a4.749 4.749 0 0 1 1.1-3.776 4.145 4.145 0 0 1 3.149-1.449h147.412a4.144 4.144 0 0 1 3.148 1.449 4.749 4.749 0 0 1 1.096 3.776z"/></g></svg>