<svg height="469pt" viewBox="-69 0 469 469.19985" width="469pt" xmlns="http://www.w3.org/2000/svg"><path d="m103.578125 227.949219.25-.121094 84.5 41.652344c6.324219 3.53125 10.242187 10.207031 10.242187 17.449219v149.589843c0 13.082031-10.839843 23.679688-24.210937 23.679688h-141.050781c-13.378906 0-24.207032-10.597657-24.207032-23.679688v-149.589843c-.003906-7.242188 3.914063-13.921876 10.238282-17.449219zm22.773437 85.152343c.203126-9.152343-5.152343-17.519531-13.550781-21.164062-8.398437-3.640625-18.167969-1.839844-24.710937 4.558594-6.546875 6.398437-8.566406 16.125-5.109375 24.601562 3.453125 8.476563 11.695312 14.019532 20.847656 14.023438 12.300781.136718 22.382813-9.722656 22.523437-22.019532zm0 0" fill="#f8ec7d"/><path d="m103.578125 170.480469c13.246094-.480469 24.519531-9.796875 27.484375-22.714844 2.964844-12.921875-3.113281-26.222656-14.824219-32.429687-11.710937-6.207032-26.132812-3.777344-35.160156 5.925781-9.03125 9.707031-10.414063 24.265625-3.378906 35.5 5.554687 8.871093 15.421875 14.101562 25.878906 13.71875zm67.492187-89.949219c22.691407 24.277344 27.703126 60.1875 12.523438 89.75s-47.285156 46.414062-80.238281 42.121094c-32.953125-4.292969-59.664063-28.8125-66.761719-61.277344s6.949219-65.894531 35.105469-83.546875c31.917969-20.191406 73.695312-14.746094 99.371093 12.953125zm0 0" fill="#e48e66"/><path d="m102.578125 335.082031c-11.878906-.367187-21.320313-10.101562-21.320313-21.988281s9.441407-21.621094 21.320313-21.988281v-62.664063l-83.238281 41.039063c-6.324219 3.527343-10.242188 10.207031-10.238282 17.449219v149.589843c0 13.082031 10.828126 23.679688 24.207032 23.679688h69.269531zm0 0" fill="#e2d574"/><path d="m102.578125 170.484375c-16.167969 0-29.273437-13.109375-29.273437-29.277344s13.105468-29.277343 29.273437-29.277343v-55.613282c-38.882813 5.457032-67.804687 38.722656-67.804687 77.984375 0 39.265625 28.921874 72.53125 67.804687 77.988281zm0 0" fill="#d18162"/><path d="m322.058594 17.308594-6.488282 29.960937-19.808593-.601562-12.363281 20.710937-20.667969-.039062-12.242188 20.949218-22.96875-1.828124-38.128906 23.898437-.75.230469c-3.558594-11.195313-9.5625-21.464844-17.570313-30.058594l114.121094-71.53125 36.617188 8.21875zm0 0" fill="#e48e66"/><path d="m103.828125 291.070312c12.101563.261719 21.722656 10.238282 21.550781 22.34375-.175781 12.101563-10.082031 21.796876-22.183594 21.710938-12.105468-.085938-21.871093-9.921875-21.875-22.023438.132813-12.300781 10.210938-22.164062 22.507813-22.03125zm0 0" fill="#e48e66"/><g fill="#63316d"><path d="m33.308594 469.199219h141.050781c18.3125 0 33.210937-14.660157 33.210937-32.679688v-149.589843c-.003906-10.503907-5.683593-20.183594-14.851562-25.308594-.132812-.074219-.269531-.144532-.410156-.214844l-79.730469-39.296875v-.066406c.300781 0 .601563.015625.902344.015625 26.695312.011718 51.945312-12.128906 68.609375-32.980469 16.664062-20.855469 22.933594-48.160156 17.035156-74.195313l30.65625-19.214843 20 1.59375c3.445312.273437 6.742188-1.449219 8.484375-4.433594l9.628906-16.476563 15.492188.027344h.019531c3.167969 0 6.105469-1.664062 7.726562-4.386718l9.648438-16.167969 14.519531.441406c4.335938.132813 8.152344-2.851563 9.070313-7.089844l6.488281-29.960937c.957031-4.410156-1.503906-8.847656-5.75-10.375l-.25-.089844c-.351563-.125-.710937-.230469-1.074219-.3125l-36.621094-8.21875c-2.3125-.519531-4.738281-.105469-6.75 1.15625l-108.101562 67.761719c-27.335938-24.65625-67.152344-29.628907-99.714844-12.457031-32.558594 17.175781-50.941406 52.84375-46.03125 89.328124 4.914063 36.484376 32.070313 66.023438 68.011719 73.976563v2.371094l-79.21875 39.050781c-.136719.070312-.269531.136719-.398437.214844-9.171876 5.121094-14.859376 14.804687-14.859376 25.308594v149.589843c0 18.019531 14.894532 32.679688 33.207032 32.679688zm70.269531-337.597657c-4.96875 0-9 4.027344-9 9v19.253907c-6.953125-2.949219-11.6875-9.523438-12.285156-17.050781-.597657-7.53125 3.042969-14.769532 9.445312-18.777344 3.214844-2.027344 6.933594-3.105469 10.734375-3.109375 1.539063.003906 3.074219.179687 4.574219.523437 7.992187 1.832032 14.097656 8.296875 15.464844 16.386719 1.371093 8.085937-2.265625 16.199219-9.210938 20.558594-.238281.148437-.484375.28125-.722656.421875v-18.207032c0-4.972656-4.027344-9-9-9zm183.253906-113.007812 24.546875 5.507812-3.019531 13.941407-12.328125-.371094c-3.261719-.09375-6.324219 1.582031-8 4.382813l-9.734375 16.316406-15.550781-.03125h-.015625c-3.199219 0-6.15625 1.699218-7.769531 4.460937l-9.390626 16.070313-17.335937-1.382813c-1.929687-.152343-3.855469.320313-5.492187 1.34375l-29.601563 18.558594c-1.550781-3.332031-3.304687-6.566406-5.253906-9.683594-1.0625-1.699219-2.203125-3.347656-3.386719-4.972656zm-232.40625 152.757812c-20.460937-32.640624-10.589843-75.691406 22.050781-96.152343 32.640626-20.460938 75.6875-10.589844 96.148438 22.050781 13.574219 21.640625 14.230469 48.96875 1.710938 71.238281-12.519532 22.265625-36.214844 35.90625-61.757813 35.550781v-25.914062c3.625-.988281 7.085937-2.496094 10.273437-4.480469 15.5625-9.730469 22.042969-29.125 15.457032-46.257812-6.585938-17.132813-24.386719-27.195313-42.460938-23.996094-18.074218 3.195313-31.34375 18.753906-31.65625 37.105469-.308594 18.347656 12.433594 34.34375 30.386719 38.148437v22.777344c-16.660156-4.675781-30.976563-15.398437-40.152344-30.070313zm-36.324219 115.578126c-.003906-3.910157 2.074219-7.527344 5.453126-9.492188l80.273437-39.574219 80.285156 39.570313c3.378907 1.972656 5.457031 5.589844 5.457031 9.5v149.585937c-.160156 8.25-6.960937 14.816407-15.210937 14.679688h-141.050781c-8.246094.136719-15.050782-6.429688-15.207032-14.679688zm0 0"/><path d="m103.828125 344.121094c17.382813 0 31.523437-13.917969 31.523437-31.019532 0-17.105468-14.140624-31.03125-31.523437-31.03125-17.378906 0-31.507813 13.917969-31.507813 31.03125 0 17.109376 14.132813 31.019532 31.507813 31.019532zm0-44.050782c7.132813.261719 12.730469 6.207032 12.554687 13.339844-.171874 7.132813-6.050781 12.804688-13.183593 12.71875-7.136719-.085937-12.875-5.894531-12.878907-13.027344.148438-7.324218 6.1875-13.148437 13.507813-13.03125zm0 0"/><path d="m45.578125 413.601562h116c4.972656 0 9-4.03125 9-9 0-4.972656-4.027344-9-9-9h-116c-4.96875 0-9 4.027344-9 9 0 4.96875 4.03125 9 9 9zm0 0"/><path d="m45.578125 376.601562h116c4.972656 0 9-4.03125 9-9 0-4.972656-4.027344-9-9-9h-116c-4.96875 0-9 4.027344-9 9 0 4.96875 4.03125 9 9 9zm0 0"/></g></svg>