<svg id="Layer_1" height="512" viewBox="0 0 512 512" width="512" xmlns="http://www.w3.org/2000/svg" data-name="Layer 1"><path d="m443.67 164.38-28.18-28.18a9.079 9.079 0 0 0 -12.84 12.84l28.18 28.18a9.079 9.079 0 1 0 12.84-12.84z" fill="#aeb4bd"/><path d="m428.73 175.12-23.82-23.82a12.5 12.5 0 0 0 -17.535 0l-15.375 15.17v.02l49.375 32.84 7.118-7.01a12.265 12.265 0 0 0 .237-17.2z" fill="#7d8595"/><path d="m301.13 289.48v16.84h-82.78v-16.84a4.089 4.089 0 0 1 4.09-4.09h74.6a4.089 4.089 0 0 1 4.09 4.09z" fill="#6994fe"/><path d="m424.42 210.325a51.014 51.014 0 0 0 -60.4-42.9l-170.89 33.442a102.147 102.147 0 0 0 -61.74 38.407l-94.84 124.726h409.78zm-282.72 94.675 23.25-35.97a81.641 81.641 0 0 1 57.02-36.58l88.1-12.74a40.786 40.786 0 0 1 46.68 38.05l2.63 47.24z" fill="#e77187"/><path d="m351.99 325.97a9.67 9.67 0 0 1 0 19.34h-20.34v-19.34z" fill="#bad79d"/><path d="m331.65 325.97v19.34h-20.33a9.67 9.67 0 1 1 0-19.34z" fill="#efcb7b"/><path d="m223.13 200.867 165.159-32.321a50.68 50.68 0 0 0 -15.9-2.067 51.337 51.337 0 0 0 -8.37.945l-170.889 33.443a102.147 102.147 0 0 0 -61.74 38.407l-94.84 124.726h30l94.84-124.726a102.147 102.147 0 0 1 61.74-38.407z" fill="#b26072"/><path d="m33.35 364a17.513 17.513 0 0 0 -17.3 17.48l-.05 6.52h417.89l.11-24z" fill="#b0b5ca"/><path d="m63.35 364h-30a17.513 17.513 0 0 0 -17.3 17.48l-.05 6.52h30l.05-6.52a17.513 17.513 0 0 1 17.3-17.48z" fill="#9296a5"/><g fill="#284268"><path d="m466.312 118.409a35.45 35.45 0 0 0 -25.234 10.453l-12.221 12.22-9.123-9.124a15.078 15.078 0 0 0 -21.324 0 15 15 0 0 0 -4.372 9.9 18.151 18.151 0 0 0 -10.713 5.193l-13.583 13.583a58.254 58.254 0 0 0 -6.872.91l-170.893 33.439a108.015 108.015 0 0 0 -65.36 40.664l-93.041 122.353h-.229a23.376 23.376 0 0 0 -23.3 23.229l-.047 6.294a6.507 6.507 0 0 0 1.741 4.488 6.223 6.223 0 0 0 4.259 1.989h417.888a6.217 6.217 0 0 0 6-6.219l.085-17.781h6.359a5.933 5.933 0 0 0 5.939-6.783l-21.91-153.693a58.3 58.3 0 0 0 -1.894-8.6l4.363-4.365a18.144 18.144 0 0 0 5.193-10.718 15.065 15.065 0 0 0 9.892-25.7l-10.572-10.572 12.219-12.22a23.688 23.688 0 1 1 33.5 33.5l-13.2 13.2a32.366 32.366 0 0 0 0 45.775 6 6 0 1 0 8.485-8.486 20.365 20.365 0 0 1 0-28.8l13.2-13.2a35.688 35.688 0 0 0 -25.235-60.923zm-74.5 37.129a6.265 6.265 0 0 1 8.858 0l23.678 23.678a6.272 6.272 0 0 1 0 8.859l-1 1a57.491 57.491 0 0 0 -37.675-27.4zm36.105 226.462h-405.87v-.5a11.535 11.535 0 0 1 11.3-11.5h394.625zm11.5-24h-390.768l87.521-115.091a96.064 96.064 0 0 1 58.111-36.171l170.893-33.426a45.117 45.117 0 0 1 53.307 37.86zm.015-189.375a3.078 3.078 0 1 1 -4.354 4.353l-28.178-28.178a3.082 3.082 0 0 1 0-4.353 3.153 3.153 0 0 1 4.354 0z"/><path d="m359.382 311a5.745 5.745 0 0 0 5.991-6.092l-2.632-47.34a46.868 46.868 0 0 0 -53.535-43.768l-88.1 12.779a87.738 87.738 0 0 0 -61.206 39.366l-23.248 36.128a5.714 5.714 0 0 0 -.22 5.961 5.853 5.853 0 0 0 5.268 2.966zm-64.382-12h-71v-8h71zm-72.563-20a10.745 10.745 0 0 0 -10.437 10.481v9.519h-59.3l17.3-26.719a75.633 75.633 0 0 1 52.837-33.9l88.1-12.733a34.923 34.923 0 0 1 39.822 32.452l2.28 40.9h-46.039v-9.519c0-5.563-4.4-10.481-9.959-10.481z"/><path d="m351.986 320h-40.665a15.5 15.5 0 1 0 0 31h40.665a15.5 15.5 0 1 0 0-31zm-25.986 19h-14.679a3.5 3.5 0 1 1 0-7h14.679zm25.986 0h-13.986v-7h13.986a3.5 3.5 0 1 1 0 7z"/><path d="m405.057 243.9a6 6 0 0 0 -5.3 6.624l8.341 75.346a6 6 0 0 0 11.927-1.321l-8.34-75.345a6 6 0 0 0 -6.628-5.304z"/><path d="m404.133 235.575a6 6 0 0 0 5.305-6.623l-.532-4.805a6 6 0 1 0 -11.927 1.318l.531 4.805a6 6 0 0 0 5.956 5.341 6.253 6.253 0 0 0 .667-.036z"/></g></svg>