<svg id="Layer_1" enable-background="new 0 0 512 512" height="512" viewBox="0 0 512 512" width="512" xmlns="http://www.w3.org/2000/svg"><path d="m130 80h253v164h-253z" fill="#fb6771"/><path d="m130 80h30.4v164h-30.4z" fill="#ffbbc2"/><path d="m358.3 244.5h-27.4c.2-7.6 6.5-13.6 14-13.4 7.4.2 13.2 6.1 13.4 13.4z" fill="#6d7486"/><path d="m185.1 244.5h-27.4c.2-7.6 6.5-13.6 14-13.4 7.3.2 13.2 6.1 13.4 13.4z" fill="#6d7486"/><path d="m130 269h253v159h-253z" fill="#49bdff"/><path d="m130 269h30.4v159h-30.4z" fill="#92deff"/><path d="m110 244h294v25h-294z" fill="#55d8d8"/><path d="m446.8 346.3h22v82.3h-22z" fill="#c79a83"/><path d="m452.3 313h-74.1c-8.8-.2-16 6.8-16.2 15.5v.5 17h107v-17c0-9-7.6-16-16.7-16z" fill="#6d7486"/><path d="m361.7 346.3h22v82.3h-22z" fill="#c79a83"/><path d="m128.3 346.3h22v82.3h-22z" fill="#c79a83"/><path d="m133.8 313h-74.1c-9.1 0-16.7 7-16.7 16v17h107v-17c.1-8.8-6.9-15.9-15.6-16.1-.2.1-.4.1-.6.1z" fill="#6d7486"/><path d="m43.2 346.3h22v82.3h-22z" fill="#c79a83"/><path d="m240.4 55.4h32.8v373.2h-32.8z" fill="#7ce5e9"/><path d="m20.4 426.6h471.1v30h-471.1z" fill="#eadf53"/><path d="m110 244h30.4v25h-30.4z" fill="#adf0e5"/><path d="m20.4 426.6h30.4v30h-30.4z" fill="#fff6b3"/><path d="m45.3 191.3v59.8c0 7-5.7 12.6-12.7 12.7h-3.6c-7 0-12.6-5.7-12.6-12.7v-59.8c0-7 5.7-12.6 12.6-12.6h3.6c7 0 12.7 5.7 12.7 12.6z" fill="#6d7486"/><path d="m495.6 191.3v59.8c0 7-5.7 12.6-12.6 12.7h-3.5c-7 0-12.6-5.7-12.7-12.7v-59.8c0-7 5.7-12.6 12.7-12.6h3.5c6.9 0 12.6 5.7 12.6 12.6z" fill="#6d7486"/><path d="m482.9 173h-3.5c-10-.1-18.3 7.9-18.4 18v.4 59.8c-.1 10.3 8.1 18.7 18.3 18.8h3.5c2.3 0 4.1-.6 7.1-1.4v59.8c0 6.5-5.8 11.6-12.3 11.6h-2.6v-11c0-12.4-10.3-22-22.7-22h-63.3v-32h14.9c3.3 0 6.1-2.3 6.1-5.6v-25.9c0-3.3-2.8-5.5-6.1-5.5h-14.9v-158.5c0-3.3-2.5-5.5-5.9-5.5h-104.1v-18.6c0-3.3-2.5-6.4-5.8-6.4h-32.8c-3.5.2-6.3 2.9-6.4 6.4v18.6h-103.5c-3.3 0-6.5 2.2-6.5 5.5v158.5h-14.3c-3-.2-5.5 2-5.7 5v.5 25.9c-.1 3 2.3 5.5 5.3 5.6h.4 14.3v32h-64.3c-12.4 0-22.7 9.6-22.7 22v11h-2.7c-6.5 0-12.3-5-12.3-11.6v-59.8c2.3.9 4.7 1.4 7.1 1.4h3.6c10.3-.1 18.5-8.5 18.4-18.8v-59.8c.1-10-8-18.2-18-18.3-.1 0-.3 0-.4 0h-3.6c-10.3 0-19.1 8.1-19.1 18.3v137.1c0 13.2 11.1 23.6 24.3 23.6h2.7v69h-16.6c-3.3 0-6.4 2.3-6.4 5.6v30c.2 3.5 3 6.2 6.4 6.4h471.1c3.5-.2 6.3-2.9 6.4-6.4v-30c0-3.3-3.1-5.6-6.4-5.6h-16.5v-69h2.7c13.2 0 24.3-10.4 24.3-23.6v-137.2c0-10.2-8.8-18.3-19.1-18.3zm-460.9 18.3c0-3.7 3.4-6.3 7.1-6.3h3.6c3.4-.1 6.3 2.5 6.4 5.9v.4 59.8c.1 3.6-2.7 6.7-6.3 6.8 0 0 0 0-.1 0h-3.6c-3.8-.1-6.9-3-7.1-6.8zm430.3 127.7c5.8 0 10.7 4.3 10.7 10v11h-95v-11c-.1-5.4 4.2-9.9 9.7-10.1h.5 74.1zm10.7 33v69h-10v-69zm-22 0v69h-51v-69zm-63 0v69h-10v-69zm-99-266h98v152h-13.7c-3.5-10.3-14.8-15.9-25.1-12.3-5.8 2-10.3 6.5-12.3 12.3h-22.9v-68h9v32.1c0 3.3 2.7 6 6 6s6-2.7 6-6v-77c0-3.3-2.7-6-6-6s-6 2.7-6 6v32.9h-15.5c-2.9-.1-5.4 2.1-5.5 5v.6 74.4h-12zm70.1 152h-9c2.7-1.9 6.3-1.9 9 0zm-70.1 12h119v13h-119zm0 25h98v32h1.2c-12.1-.2-22 9.5-22.2 21.6v.5 92h-77zm-33-214h21v360h-21zm-110 25h98v152h-11v-74.4c0-3.1-2.5-5.6-5.6-5.6-.1 0-.2 0-.3 0h-15.1v-32.9c0-3.3-2.7-6-6-6s-6 2.7-6 6v77c0 3.3 2.7 6 6 6s6-2.7 6-6v-32.1h9v68h-20.9c-3.5-10.3-14.8-15.9-25.1-12.3-5.8 2-10.3 6.5-12.3 12.3h-16.7zm39.9 152h-9c2.7-1.9 6.3-1.9 9 0zm-59.9 25v-13h118v13zm-67 66c0-5.8 4.9-10 10.7-10h74.1c5.4-.2 10 4.1 10.2 9.6v.5 11h-95zm95 23v69h-10v-69zm-22 0v69h-51v-69zm-73 0h10v69h-10zm437 81v18h-460v-18h149.1c3.3 0 6-2.7 6-6s-2.7-6-6-6h-19.1v-92c.1-12.1-9.6-22-21.7-22.1-.2 0-.3 0-.5 0h2.2v-32h98v146h-32.8c-3.3 0-6 2.7-6 6s2.7 6 6 6h284.8zm4-181.8c-.2 3.8-3.3 6.8-7.1 6.8h-3.5c-3.6-.1-6.5-3.1-6.4-6.8 0 0 0 0 0-.1v-59.8c-.1-3.4 2.6-6.2 6-6.3h.4 3.5c3.7 0 7.1 2.7 7.1 6.3z" fill="#284268"/></svg>