<svg id="Layer_1" enable-background="new 0 0 512 512" height="512" viewBox="0 0 512 512" width="512" xmlns="http://www.w3.org/2000/svg"><path d="m256 105.7c-83.1 0-150.5 67.4-150.5 150.5 0 76.4 57.3 140.7 133.2 149.5 5.8.7 11.6 1 17.4 1 5.5 0 11-.3 16.5-.9 82.6-9.1 142.3-83.5 133.2-166.1-8.6-76.2-73-134-149.8-134z" fill="#66dedf"/><path d="m268.6 405.8c-82.6-9.6-141.8-84.3-132.2-166.9 8.2-70.3 64.1-125.4 134.5-132.4-4.9-.5-9.9-.7-15-.7-83.1 0-150.5 67.4-150.5 150.5 0 76.4 57.3 140.7 133.2 149.5 5.8.7 11.6 1 17.4 1 5.1 0 10.1-.3 15-.8-.8 0-1.6-.1-2.4-.2z" fill="#50a5a2"/><path d="m335.4 384.1-.4-.3v-54.4c.1-3.9-.6-7.7-1.9-11.4-.1-.4-.2-.7-.4-1-3.5-7.8-10.1-13.7-18.2-16.5l-4.6-1.6c-7.1-2.5-14.4-3.9-21.7-5.9h-64.3c-7.4 2-14.6 3.5-21.8 5.9l-4.6 1.6c-8.1 2.7-14.7 8.7-18.2 16.5-.1.3-.1.7-.3 1-1.3 3.6-2 7.5-1.9 11.4v54.4l-.2.3c18.8 11.8 40.1 19.2 62.2 21.7v.2l33.5-.1v.1c22.2-2.5 43.7-9.9 62.8-21.9z" fill="#4e6cca"/><path d="m272.4 405.8v.1c-5.5.6-11 .9-16.5.9-5.8 0-11.6-.3-17.4-1l8.9-68.8h18z" fill="#e87187"/><path d="m257 315.2-13.2 6.5 3.7 15.3h18l4.5-14.5z" fill="#ad5e73"/><g fill="#66dedf"><circle cx="448.7" cy="63.3" r="30.8"/><path d="m478.7 435.2c12 12 12 31.5 0 43.6-12 12-31.5 12-43.6 0-12-12-12-31.5 0-43.6 12.1-12.1 31.6-12.1 43.6 0z"/><path d="m470.2 225.2c17 0 30.8 13.8 30.8 30.8s-13.8 30.8-30.8 30.8-30.8-13.8-30.8-30.8 13.8-30.8 30.8-30.8z"/><path d="m256 11c17 0 30.8 13.8 30.8 30.8s-13.8 30.8-30.8 30.8-30.8-13.8-30.8-30.8c0-17 13.8-30.8 30.8-30.8z"/><path d="m77.2 435.6c11.5 12.3 10.8 31.5-1.4 43s-31.5 10.8-43-1.4c-11.5-12.3-10.8-31.5 1.4-43 12.1-11.3 31-10.9 42.5 1 .3.1.4.2.5.4z"/><path d="m76.8 33.3c12 12 12 31.5 0 43.6s-31.5 12-43.6 0-12-31.5 0-43.6c12.1-12.1 31.6-12.1 43.6 0z"/><path d="m41.8 225.2c17 0 30.8 13.8 30.8 30.8s-13.8 30.8-30.8 30.8-30.8-13.8-30.8-30.8 13.8-30.8 30.8-30.8z"/><path d="m256 439.4c17 0 30.8 13.8 30.8 30.8s-13.8 30.8-30.8 30.8-30.8-13.8-30.8-30.8 13.8-30.8 30.8-30.8z"/></g><path d="m275.8 291.1-39.3-.1c-4.2 1-8.4 1.2-12.6 2l.1.5 4.6 35.1 15.3-6.9 12.1-5.5 14 6.3 13.5 6.1 4.6-35.1.1-.4c-4.1-.8-8.3-1.5-12.4-2z" fill="#7296ed"/><path d="m236 271.8.3 19.3c.2 4.3 2.1 8.3 5.3 11.3l14.4 13.8 14.4-13.8c3.2-2.9 5.1-7 5.4-11.3l.2-19.3z" fill="#efc597"/><path d="m275.6 273.8c-20.7 10.8-46.2 2.8-57-17.8-3.1-6-4.8-12.7-4.8-19.4v-.1c-5.1-.9-8.9-5.3-8.9-10.5 0-.9.1-1.7.3-2.6.8-3.4 3.8-5.9 7.2-6.1.2 1 .9 1.8 1.8 2.3 0 0 10.7 2.5 10.8 1.9l1.5-18.5c.1-1 .9-1.7 1.9-1.6l3.4.4c14.3 1.5 28.4-4.7 36.8-16.5 10.3 6.9 17.6 17.4 20.5 29.5l2 8.4 7.1-3.3c.7-.7 1.2-1.6 1.3-2.5 3.5.3 6.4 2.7 7.2 6.1.2.8.3 1.7.3 2.6 0 5.2-3.8 9.6-8.9 10.5v.1c.1 15.5-8.6 29.9-22.5 37.1z" fill="#ffd8b7"/><path d="m256 155.2c24.6-.1 44.6 19.8 44.7 44.5 0 1 0 2.1-.1 3.1l-1 14.1v.3c-.1 1-.6 1.9-1.3 2.5l-7.1 3.3-2-8.4c-2.9-12-10.3-22.5-20.5-29.5-8.4 11.7-22.5 18-36.8 16.5l-3.4-.4c-1-.1-1.8.6-1.9 1.6l-1.5 18.5c-.1.6-10.8-1.9-10.8-1.9-.9-.5-1.6-1.3-1.8-2.3-.1-.2-.1-.4-.1-.6l-1-13.9c-.1-1-.1-2.1-.1-3.1.1-24.5 20.1-44.3 44.7-44.3z" fill="#7f3d32"/><g fill="#284268"><g><path d="m433.9 262c2.8 17.8 18.2 30.9 36.3 30.7 20.3-.1 36.7-16.7 36.6-37-.1-20.2-16.4-36.5-36.6-36.6-18.3 0-33.6 13.9-36.4 30.9h-21.4c-1.5-38.8-17.3-74-42.1-100.6l56.5-56.5c14.7 10.8 35 9.3 48-3.5 14.4-14.4 14.4-37.7 0-52.1s-37.7-14.4-52.1 0c-12.6 12.6-14.4 32.4-4.2 47l-56.8 56.7c-26.7-24.6-62-40-100.7-41.2v-21.5c20.2-2.7 34.4-21.2 31.7-41.4s-21.2-34.4-41.4-31.7-34.4 21.2-31.7 41.4c2.1 15.7 13.9 28.2 29.4 31.3v22c-38.5 1.7-73.4 17.4-99.8 42l-64.7-64.7c12.2-16.2 9-39.3-7.3-51.6s-39.3-9-51.6 7.3-9 39.3 7.3 51.6c6.4 4.8 14.2 7.4 22.2 7.4 7.4 0 14.6-2.2 20.7-6.4l64.9 64.9c-24.5 26.7-39.9 61.9-41.1 100.6h-21.3c-2.5-20.2-21-34.6-41.3-32.1-20.2 2.5-34.6 21-32.1 41.3s21 34.6 41.3 32.1c15.8-2 28.5-13.8 31.7-29.3h21.8c1.7 38.5 17.3 73.4 41.9 99.9l-64.6 64.5c-16.3-12.1-39.4-8.7-51.6 7.6-12.1 16.3-8.7 39.4 7.6 51.6 16.3 12.1 39.4 8.7 51.6-7.6 9.4-12.7 9.7-29.9.7-42.9l64.8-64.8c26.5 24.5 61.5 39.9 99.9 41.3v21.2c-20.1 3.3-33.6 22.3-30.3 42.3s22.3 33.6 42.3 30.3c17.8-2.9 30.8-18.3 30.8-36.3s-13.1-33.4-30.8-36.3v-21.2c38.8-1.5 74-17.1 100.6-41.9l64.5 64.5c-12 16.4-8.4 39.5 8 51.4s39.5 8.4 51.4-8 8.4-39.5-8-51.4c-6.1-4.6-13.7-7.1-21.6-7.1-7.6 0-15 2.3-21.2 6.7l-64.6-64.6c24.5-26.6 39.9-61.6 41.3-100.2zm36.3-30.8c13.7 0 24.8 11.1 24.8 24.8s-11.1 24.8-24.8 24.8-24.8-11.1-24.8-24.8 11.1-24.8 24.8-24.8zm-39.1-185.3c0-.1 0-.1 0 0 9.8-9.8 25.5-9.8 35.2-.1s9.7 25.4 0 35.1-25.4 9.7-35.1 0c-9.7-9.6-9.7-25.3-.1-35zm-358.5 26.7c-9.7 9.7-25.4 9.7-35.1 0s-9.7-25.4 0-35.1 25.4-9.7 35.1 0 9.7 25.4 0 35.1zm-30.8 208.2c-13.7 0-24.8-11.1-24.8-24.8s11.1-24.8 24.8-24.8 24.8 11.1 24.8 24.8-11.1 24.8-24.8 24.8zm30.8 193.7c-9.7 9.7-25.4 9.7-35.1 0s-9.7-25.4 0-35.1 25.4-9.7 35.1 0 9.7 25.4 0 35.1zm366.8-35.1c9.7-9.7 25.4-9.7 35.1 0s9.7 25.4 0 35.1-25.4 9.7-35.1 0-9.7-25.4 0-35.1zm-208.2-397.6c0-13.7 11.1-24.8 24.8-24.8s24.8 11.1 24.8 24.8-11.1 24.8-24.8 24.8-24.8-11.1-24.8-24.8zm2.4 357.2c-8.1-1.2-16-3.2-23.6-5.9v-36.6c0-3-2.2-5.8-5.2-6.2-3.7-.5-6.8 2.4-6.8 5.9v32.1c-5.3-1.9-10.3-4.5-15-7.7v-51.4c-.1-2.8.8-6.8 1.6-9.5.1-.2 0-.1 0 0 2.9-5.9 8.5-11.5 14.8-13.6l4.6-1.6c4.8-1.7 9.7-3.1 14.7-4.3l3.8 29.1c.4 3.3 3.5 5.6 6.7 5.2.6-.1 1.2-.2 1.7-.5l8.7-4 1.7 7zm-5.1-172.7c1.4-1 2.3-2.7 2.5-4.4l1.1-14.1c14 1.2 27.7-4.1 37.4-14.3 6.8 5.9 11.6 13.8 13.8 22.6l2.1 8.4c.6 2.4 2.6 4.1 4.9 4.5 1.1.2 2.3-.1 3.3-.5l7.5-3.4c.1.3.1.6.1.8 0 2.3-1.6 4.2-3.9 4.6-2.9.5-5 3-5 6 0 20-16.3 36.2-36.3 36.2s-36.2-16.3-36.2-36.3c0-2.9-2.1-5.4-5-5.9-2.3-.4-3.9-2.3-3.9-4.6 0-.4 0-.8.1-1.1l1.9.6c11.7 2.7 13.3 2.6 15.6.9zm-.9-52.8c14.7-15.7 39.2-16.5 54.9-1.8.6.6 1.2 1.2 1.8 1.8 7.3 7.7 11 18.2 10.2 28.8l-.5 7.8c-3.7-12.2-11.6-22.8-22.1-29.9-2.7-1.8-6.3-1.2-8.2 1.5-7.2 10-19.1 15.3-31.3 14l-3.5-.4h-.1c-4.3-.4-8 2.8-8.3 7.1l-1 12.1c-.4-.1-.9-.2-1.3-.3l-.8-11.9c-.8-10.6 2.9-21 10.2-28.8zm9.9 133.3 8 7.6-12 5.5-2.9-21.8c.4-.1.8-.1 1.2-.2 1.2 3.4 3.1 6.4 5.7 8.9zm43.3 163.4c0 13.7-11.1 24.8-24.8 24.8s-24.8-11.1-24.8-24.8 11.1-24.8 24.8-24.8 24.8 11.1 24.8 24.8zm-24.8-69.4c-3.6 0-7.1-.1-10.6-.4l7.4-57.5 7.3.1 5.8 57.5c-3.3.2-6.6.3-9.9.3zm-5.2-75.4 5.3-3 6.5 3-1.6 5.6-8.8-.1zm5.3-17.5-10.5-9.8c-2.2-2-3.5-4.8-3.6-7.8v-7.7c9.2 2.6 18.8 2.6 28 0v7.7c-.1 3-1.4 5.8-3.5 7.8zm18.4-1.2c2.6-2.5 4.6-5.5 5.7-8.9.4.1.8.1 1.2.2l-2.9 21.8-12-5.5zm40.5 81.7v-32c0-3.3-2.7-6-6-6s-6 2.7-6 6v36.7c-8.1 2.8-16.5 4.8-25 6.1l-6.3-61.4 2-6.9 7.3 3.3c3 1.4 6.6 0 7.9-3 .2-.5.4-1.1.5-1.7l3.8-29.1c5 1.2 9.9 2.6 14.7 4.3l4.6 1.6c6.5 2.2 11.9 7.3 14.8 13.6 1.1 2.9 1.7 6.4 1.6 9.6v51.3h.1c-4.4 2.9-9.1 5.5-14 7.6zm26-15.5v-43.4c.1-4.7-.9-9.9-2.6-14.2-4.2-9.3-12.3-17-22-20.3l-4.4-1.6c-9.8-3.4-19.8-5.9-30.1-7.5v-8.6c12.6-8.1 20.8-21.6 22.3-36.5 6.9-3.5 10.4-11.4 8.4-18.8-.9-3.8-3.4-7-6.8-8.9l.7-9.8c1-13.9-3.9-27.7-13.4-37.8-19.2-20.5-51.4-21.6-71.9-2.4-.8.8-1.6 1.6-2.4 2.4-9.6 10.2-14.5 23.9-13.4 37.8l.7 9.8c-3.4 1.9-5.8 5.1-6.8 8.9-1.8 7.5 1.6 15.2 8.4 18.8 1.5 14.9 9.7 28.4 22.3 36.5v8.6c-10.2 1.6-20.3 4.1-30.1 7.5l-4.5 1.6c-9.5 3.2-17.7 11.3-21.9 20.2-1.5 4.2-2.6 9.9-2.5 14.3v43.4c-37.3-27.1-59.4-70.5-59.4-116.6 0-79.7 64.8-144.5 144.5-144.5s144.3 64.8 144.3 144.5c0 46.1-22.1 89.4-59.4 116.6z"/><path d="m173.5 315.2c.1-.1.1-.1 0 0z"/><path d="m173.5 315.2c0 .1-.1.2 0 0z"/><path d="m173.5 315.2c.1-.1 0 0 0 0 .1-.1 0-.1 0 0z"/></g><path d="m338.4 315.2c.2.4-.1-.4 0 0z"/><path d="m190.6 146.9c-1.9 1.1-3.7 2.3-5.5 3.5-2.8 1.8-3.5 5.6-1.6 8.3s5.6 3.5 8.3 1.6c1.6-1.1 3.3-2.2 5-3.2 2.9-1.7 3.8-5.3 2.2-8.2s-5.4-3.7-8.4-2z"/><path d="m165.4 166.7c-27.7 28.3-40.8 67.8-35.4 107.1.5 3.3 3.5 5.5 6.8 5.1 3.2-.5 5.5-3.5 5.1-6.7-4.9-35.5 6.9-71.3 32-97 2.3-2.4 2.3-6.2-.1-8.5-2.3-2.4-6.1-2.4-8.4 0z"/></g></svg>